<svg width="52" height="52" viewBox="0 0 52 52" fill="none" xmlns="http://www.w3.org/2000/svg">
<rect width="52" height="52" rx="12" fill="#F2F2F7"/>
<path d="M23.99 36.75C23.79 36.75 23.63 36.71 23.51 36.66C23.11 36.51 22.43 36.02 22.43 34.47V28.02H20.09C18.75 28.02 18.27 27.39 18.1 27.02C17.93 26.64 17.78 25.87 18.66 24.86L26.23 16.26C27.25 15.1 28.08 15.18 28.48 15.33C28.88 15.48 29.56 15.97 29.56 17.52V23.97H31.9C33.24 23.97 33.72 24.6 33.89 24.97C34.06 25.35 34.21 26.12 33.33 27.13L25.76 35.73C25.05 36.54 24.43 36.75 23.99 36.75ZM27.93 16.74C27.9 16.78 27.69 16.88 27.36 17.26L19.79 25.86C19.51 26.18 19.47 26.38 19.47 26.42C19.49 26.43 19.67 26.53 20.09 26.53H23.18C23.59 26.53 23.93 26.87 23.93 27.28V34.48C23.93 34.98 24.02 35.2 24.06 35.26C24.09 35.22 24.3 35.12 24.63 34.74L32.2 26.14C32.48 25.82 32.52 25.62 32.52 25.58C32.5 25.57 32.32 25.47 31.9 25.47H28.81C28.4 25.47 28.06 25.13 28.06 24.72V17.52C28.07 17.02 27.97 16.81 27.93 16.74Z" fill="#0F172A"/>
</svg>
