<svg width="52" height="52" viewBox="0 0 52 52" fill="none" xmlns="http://www.w3.org/2000/svg">
<rect width="52" height="52" rx="12" fill="#F2F2F7"/>
<path d="M25.9003 25.1608C26.6332 25.1608 27.3497 24.9434 27.9592 24.5362C28.5686 24.129 29.0436 23.5502 29.324 22.873C29.6045 22.1958 29.6778 21.4507 29.5348 20.7318C29.3917 20.0129 29.0387 19.3526 28.5204 18.8344C28.002 18.3162 27.3417 17.9633 26.6228 17.8204C25.9039 17.6775 25.1587 17.751 24.4816 18.0316C23.8045 18.3122 23.2258 18.7873 22.8187 19.3968C22.4116 20.0063 22.1944 20.7228 22.1945 21.4558C22.1957 22.4382 22.5865 23.38 23.2813 24.0745C23.976 24.7691 24.9179 25.1598 25.9003 25.1608ZM25.9003 19.25C26.3365 19.25 26.763 19.3794 27.1257 19.6218C27.4885 19.8641 27.7712 20.2086 27.9381 20.6117C28.1051 21.0147 28.1487 21.4582 28.0636 21.8861C27.9785 22.314 27.7685 22.707 27.46 23.0155C27.1515 23.3239 26.7585 23.534 26.3306 23.6191C25.9027 23.7042 25.4592 23.6606 25.0562 23.4936C24.6531 23.3267 24.3086 23.044 24.0663 22.6812C23.8239 22.3185 23.6945 21.892 23.6945 21.4558C23.6953 20.871 23.928 20.3104 24.3414 19.8969C24.7549 19.4835 25.3155 19.2508 25.9003 19.25Z" fill="#0F172A"/>
<path d="M18.8997 27.3388C19.4634 27.3388 20.0144 27.1716 20.4831 26.8585C20.9518 26.5453 21.3171 26.1002 21.5328 25.5794C21.7485 25.0587 21.8049 24.4856 21.695 23.9328C21.585 23.3799 21.3136 22.8721 20.915 22.4735C20.5164 22.075 20.0086 21.8035 19.4558 21.6936C18.9029 21.5836 18.3299 21.64 17.8091 21.8557C17.2883 22.0714 16.8432 22.4367 16.5301 22.9054C16.2169 23.3741 16.0497 23.9251 16.0497 24.4888C16.0497 25.2447 16.35 25.9696 16.8845 26.5041C17.419 27.0385 18.1439 27.3388 18.8997 27.3388ZM18.8997 23.1388C19.1667 23.1388 19.4278 23.218 19.6498 23.3663C19.8718 23.5147 20.0448 23.7255 20.147 23.9722C20.2492 24.2189 20.2759 24.4903 20.2238 24.7522C20.1717 25.014 20.0431 25.2546 19.8543 25.4434C19.6655 25.6322 19.425 25.7608 19.1631 25.8129C18.9012 25.8649 18.6298 25.8382 18.3831 25.736C18.1364 25.6339 17.9256 25.4608 17.7773 25.2388C17.6289 25.0168 17.5497 24.7558 17.5497 24.4888C17.5497 24.1308 17.692 23.7874 17.9451 23.5342C18.1983 23.281 18.5417 23.1388 18.8997 23.1388Z" fill="#0F172A"/>
<path d="M32.9 27.3388C33.4637 27.3388 34.0147 27.1716 34.4834 26.8585C34.952 26.5453 35.3173 26.1002 35.533 25.5794C35.7488 25.0587 35.8052 24.4856 35.6952 23.9328C35.5853 23.3799 35.3138 22.8721 34.9152 22.4735C34.5167 22.075 34.0088 21.8035 33.456 21.6936C32.9031 21.5836 32.3301 21.64 31.8093 21.8557C31.2886 22.0714 30.8435 22.4367 30.5303 22.9054C30.2171 23.3741 30.05 23.9251 30.05 24.4888C30.05 25.2447 30.3503 25.9696 30.8847 26.5041C31.4192 27.0385 32.1441 27.3388 32.9 27.3388ZM32.9 23.1388C33.167 23.1388 33.428 23.218 33.65 23.3663C33.872 23.5147 34.045 23.7255 34.1472 23.9722C34.2494 24.2189 34.2761 24.4903 34.224 24.7522C34.172 25.014 34.0434 25.2546 33.8546 25.4434C33.6658 25.6322 33.4252 25.7608 33.1634 25.8129C32.9015 25.8649 32.63 25.8382 32.3834 25.736C32.1367 25.6339 31.9258 25.4608 31.7775 25.2388C31.6292 25.0168 31.55 24.7558 31.55 24.4888C31.55 24.1308 31.6922 23.7874 31.9454 23.5342C32.1986 23.281 32.5419 23.1388 32.9 23.1388Z" fill="#0F172A"/>
<path d="M32.9998 28.8432C32.3423 28.8476 31.6963 29.0159 31.1203 29.333C30.5727 28.466 29.8179 27.749 28.924 27.2466C28.0301 26.7443 27.0253 26.4723 26 26.4552C24.9748 26.4723 23.9699 26.7443 23.076 27.2466C22.1821 27.749 21.4274 28.466 20.8798 29.333C20.3038 29.0159 19.6577 28.8476 19.0003 28.8432C17.8204 28.9008 16.7113 29.4228 15.915 30.2952C15.1187 31.1677 14.6999 32.3198 14.75 33.4999C14.75 33.6989 14.829 33.8896 14.9697 34.0303C15.1103 34.1709 15.3011 34.2499 15.5 34.2499C15.6989 34.2499 15.8897 34.1709 16.0303 34.0303C16.171 33.8896 16.25 33.6989 16.25 33.4999C16.2008 32.7177 16.462 31.9477 16.9768 31.3568C17.4917 30.7658 18.2187 30.4017 19.0003 30.3432C19.4147 30.3464 19.8216 30.4545 20.183 30.6574C19.8295 31.5482 19.6486 32.4981 19.6498 33.4564C19.6498 33.6554 19.7288 33.8461 19.8694 33.9868C20.0101 34.1274 20.2008 34.2064 20.3998 34.2064C20.5987 34.2064 20.7894 34.1274 20.9301 33.9868C21.0707 33.8461 21.1498 33.6554 21.1498 33.4564C21.1498 30.4227 23.3248 27.9552 26 27.9552C28.6753 27.9552 30.8503 30.4227 30.8503 33.4564C30.8503 33.6554 30.9293 33.8461 31.0699 33.9868C31.2106 34.1274 31.4013 34.2064 31.6003 34.2064C31.7992 34.2064 31.9899 34.1274 32.1306 33.9868C32.2712 33.8461 32.3503 33.6554 32.3503 33.4564C32.3514 32.4981 32.1705 31.5482 31.817 30.6574C32.1784 30.4545 32.5853 30.3464 32.9998 30.3432C33.7813 30.4017 34.5083 30.7658 35.0232 31.3568C35.538 31.9477 35.7992 32.7177 35.75 33.4999C35.75 33.6989 35.829 33.8896 35.9697 34.0303C36.1103 34.1709 36.3011 34.2499 36.5 34.2499C36.6989 34.2499 36.8897 34.1709 37.0303 34.0303C37.171 33.8896 37.25 33.6989 37.25 33.4999C37.3001 32.3198 36.8813 31.1677 36.085 30.2952C35.2887 29.4228 34.1796 28.9008 32.9998 28.8432Z" fill="#0F172A"/>
</svg>
