<svg width="48" height="48" viewBox="0 0 48 48" fill="none" xmlns="http://www.w3.org/2000/svg">
<rect width="48" height="48" rx="12" fill="#F2F2F7"/>
<path d="M30.47 34.75H26.47C24.05 34.75 22.72 33.42 22.72 31V17C22.72 14.58 24.05 13.25 26.47 13.25H30.47C32.89 13.25 34.22 14.58 34.22 17V31C34.22 33.42 32.88 34.75 30.47 34.75ZM26.47 14.75C24.89 14.75 24.22 15.42 24.22 17V31C24.22 32.58 24.89 33.25 26.47 33.25H30.47C32.05 33.25 32.72 32.58 32.72 31V17C32.72 15.42 32.05 14.75 30.47 14.75H26.47Z" fill="#0F172A"/>
<mask id="path-3-inside-1_2125_2403" fill="white">
<path d="M28.47 18.75H23.47C23.06 18.75 22.72 18.41 22.72 18C22.72 17.59 23.06 17.25 23.47 17.25H28.47C28.88 17.25 29.22 17.59 29.22 18C29.22 18.41 28.88 18.75 28.47 18.75Z"/>
</mask>
<path d="M28.47 18.75H23.47C23.06 18.75 22.72 18.41 22.72 18C22.72 17.59 23.06 17.25 23.47 17.25H28.47C28.88 17.25 29.22 17.59 29.22 18C29.22 18.41 28.88 18.75 28.47 18.75Z" fill="#0F172A"/>
<path d="M28.47 18.75V17.25H23.47V18.75V20.25H28.47V18.75ZM23.47 18.75V17.25C23.8884 17.25 24.22 17.5816 24.22 18H22.72H21.22C21.22 19.2384 22.2315 20.25 23.47 20.25V18.75ZM22.72 18H24.22C24.22 18.4184 23.8884 18.75 23.47 18.75V17.25V15.75C22.2315 15.75 21.22 16.7616 21.22 18H22.72ZM23.47 17.25V18.75H28.47V17.25V15.75H23.47V17.25ZM28.47 17.25V18.75C28.0515 18.75 27.72 18.4184 27.72 18H29.22H30.72C30.72 16.7616 29.7084 15.75 28.47 15.75V17.25ZM29.22 18H27.72C27.72 17.5816 28.0515 17.25 28.47 17.25V18.75V20.25C29.7084 20.25 30.72 19.2384 30.72 18H29.22Z" fill="#0F172A" mask="url(#path-3-inside-1_2125_2403)"/>
<path d="M27.47 30.75H23.47C23.06 30.75 22.72 30.41 22.72 30C22.72 29.59 23.06 29.25 23.47 29.25H27.47C27.88 29.25 28.22 29.59 28.22 30C28.22 30.41 27.88 30.75 27.47 30.75Z" fill="#0F172A"/>
<path d="M28.47 26.75C28.46 26.75 28.46 26.75 28.47 26.75L23.46 26.7C23.05 26.7 22.71 26.36 22.72 25.94C22.72 25.53 23.06 25.2 23.47 25.2C23.47 25.2 23.47 25.2 23.48 25.2L28.48 25.25C28.89 25.25 29.23 25.59 29.22 26.01C29.21 26.42 28.88 26.75 28.47 26.75Z" fill="#0F172A"/>
<path d="M26.47 22.75H23.47C23.06 22.75 22.72 22.41 22.72 22C22.72 21.59 23.06 21.25 23.47 21.25H26.47C26.88 21.25 27.22 21.59 27.22 22C27.22 22.41 26.88 22.75 26.47 22.75Z" fill="#0F172A"/>
<path d="M17.49 34.72C16.58 34.72 15.72 34.16 15.13 33.18L14.31 31.82C14.01 31.32 13.78 30.5 13.78 29.92V16.95C13.78 14.91 15.44 13.25 17.48 13.25C19.52 13.25 21.18 14.91 21.18 16.95V29.91C21.18 30.49 20.95 31.31 20.65 31.81L19.83 33.17C19.26 34.16 18.4 34.72 17.49 34.72ZM17.49 14.75C16.28 14.75 15.29 15.74 15.29 16.95V29.91C15.29 30.22 15.44 30.77 15.6 31.04L16.42 32.4C16.73 32.92 17.12 33.21 17.49 33.21C17.86 33.21 18.25 32.91 18.56 32.4L19.38 31.04C19.54 30.77 19.69 30.22 19.69 29.91V16.95C19.69 15.74 18.7 14.75 17.49 14.75Z" fill="#0F172A"/>
<path d="M20.44 19.75H14.53C14.12 19.75 13.78 19.41 13.78 19C13.78 18.59 14.12 18.25 14.53 18.25H20.44C20.85 18.25 21.19 18.59 21.19 19C21.19 19.41 20.85 19.75 20.44 19.75Z" fill="#0F172A"/>
</svg>
