<svg width="48" height="48" viewBox="0 0 48 48" fill="none" xmlns="http://www.w3.org/2000/svg">
<rect width="48" height="48" rx="12" fill="#F2F2F7"/>
<path d="M22.79 27.17C22.59 27.17 22.4 27.09 22.26 26.95L19.84 24.53C19.55 24.24 19.55 23.76 19.84 23.47C20.13 23.18 20.61 23.18 20.9 23.47L22.79 25.36L27.09 21.06C27.38 20.77 27.86 20.77 28.15 21.06C28.44 21.35 28.44 21.83 28.15 22.12L23.32 26.95C23.18 27.09 22.99 27.17 22.79 27.17Z" fill="#0F172A"/>
<path d="M15.8947 26.9814C15.8631 26.9338 15.8283 26.888 15.7911 26.8447H15.7921L14.4415 25.2549C14.3657 25.165 14.3004 25.0674 14.2443 24.9648C14.2993 25.0631 14.364 25.1575 14.4396 25.2461L15.7863 26.832V26.833C15.8239 26.8778 15.8599 26.9279 15.8947 26.9814ZM15.8947 26.9814C15.9251 27.0283 15.9539 27.0781 15.9816 27.1299C15.9551 27.0801 15.9267 27.0298 15.8947 26.9814ZM16.2599 29.9873C16.359 30.9591 17.1823 31.7196 18.1798 31.7197H19.9103C20.3113 31.7198 20.8671 31.9259 21.17 32.1875L21.171 32.1885L22.7511 33.5488L22.7531 33.5508C23.1188 33.8629 23.5849 33.9922 24.0099 33.9922C24.2563 33.9922 24.5154 33.9461 24.7618 33.8486C24.5246 33.9471 24.2657 34 24.0001 34C23.5912 34 23.1934 33.8807 22.8712 33.6543L22.7384 33.5508L21.1622 32.1943C20.9767 32.0326 20.7325 31.9244 20.5568 31.8613C20.3771 31.7969 20.1301 31.7305 19.8995 31.7305H18.1798C17.1141 31.7304 16.2501 30.8655 16.2501 29.7998L16.2599 29.9873ZM27.9503 31.7295C27.971 31.727 27.9917 31.7272 28.0118 31.7256C27.9914 31.727 27.9708 31.7272 27.9503 31.7295ZM16.0997 27.3906C16.1916 27.6266 16.2501 27.8758 16.2501 28.0801V28.0898C16.2501 27.8576 16.1824 27.6119 16.1173 27.4336C16.1122 27.4195 16.1054 27.4055 16.0997 27.3906ZM15.9982 27.1621C16.0169 27.1987 16.0348 27.2362 16.0519 27.2744C16.0356 27.2377 16.0176 27.2001 15.9982 27.1621ZM17.6066 16.3564C17.4858 16.3941 17.3702 16.4435 17.2609 16.5029C17.2061 16.5326 17.1531 16.5649 17.1017 16.5996C16.8448 16.7733 16.6323 17.0076 16.4835 17.2812L16.4015 17.4492C16.5968 16.9872 16.9669 16.6173 17.4288 16.4219L17.6066 16.3564ZM27.9913 16.2627C27.9778 16.2615 27.9641 16.2613 27.9503 16.2598C27.964 16.2613 27.9777 16.2616 27.9913 16.2627ZM20.2511 16.2275C20.2192 16.2345 20.1875 16.2399 20.1564 16.2451C20.1883 16.2396 20.2201 16.2345 20.2511 16.2275ZM21.1769 15.8057C20.9649 15.9839 20.6256 16.1361 20.3068 16.2139C20.4051 16.1892 20.4964 16.1607 20.5724 16.1328C20.7479 16.0683 20.9778 15.964 21.1525 15.8223L21.1613 15.8154L21.1691 15.8086L21.9825 15.1084L21.1769 15.8057ZM20.0773 16.2578C20.0191 16.265 19.9632 16.2695 19.9103 16.2695C19.9656 16.2695 20.0216 16.2647 20.0773 16.2578Z" fill="#0F172A" stroke="#0F172A" stroke-width="1.5"/>
</svg>
