<svg width="15" height="15" viewBox="0 0 15 15" fill="none" xmlns="http://www.w3.org/2000/svg">
<path d="M9.41667 3.33667L8.75 6.08333H12.6367C12.8437 6.08333 13.0478 6.13153 13.233 6.2241C13.4181 6.31667 13.5791 6.45107 13.7033 6.61667C13.8275 6.78226 13.9115 6.9745 13.9485 7.17815C13.9855 7.38181 13.9746 7.59129 13.9167 7.79L12.3633 13.1233C12.2826 13.4003 12.1141 13.6436 11.8833 13.8167C11.6525 13.9898 11.3718 14.0833 11.0833 14.0833H2.08333C1.72971 14.0833 1.39057 13.9429 1.14052 13.6928C0.890476 13.4428 0.75 13.1036 0.75 12.75V7.41667C0.75 7.06304 0.890476 6.72391 1.14052 6.47386C1.39057 6.22381 1.72971 6.08333 2.08333 6.08333H3.92333C4.17139 6.0832 4.41449 6.01387 4.6253 5.88315C4.83612 5.75242 5.00628 5.56548 5.11667 5.34333L7.41667 0.75C7.73105 0.753893 8.04049 0.828779 8.32187 0.969064C8.60325 1.10935 8.84929 1.3114 9.0416 1.56014C9.23392 1.80887 9.36754 2.09784 9.43249 2.40547C9.49744 2.7131 9.49203 3.03142 9.41667 3.33667Z" stroke="#0F172A" stroke-width="1.5" stroke-linecap="round" stroke-linejoin="round"/>
</svg>
